<svg xmlns="http://www.w3.org/2000/svg" viewBox="0 0 64 64" fill="none">
  <path d="M29.2 7.2a4 4 0 0 1 5.6 0L56.8 29.2a4 4 0 0 1 0 5.6L34.8 56.8a4 4 0 0 1-5.6 0L7.2 34.8a4 4 0 0 1 0-5.6L29.2 7.2Z" stroke="#ffffff" stroke-width="7" stroke-linejoin="round"/>
  <path d="M30 18v10.4L22.4 36 30 43.6V54M34 18v10.4l7.6 7.6-7.6 7.6V54" stroke="#ffffff" stroke-width="5" stroke-linecap="round" stroke-linejoin="round"/>
  <path d="M3 32h12M49 32h12" stroke="#ffffff" stroke-width="7" stroke-linecap="round"/>
</svg>
